<svg xmlns="http://www.w3.org/2000/svg" xmlns:xlink="http://www.w3.org/1999/xlink" width="100" height="100" viewBox="0 0 100 100"><rect width="100%" height="100%" fill="#FFFFFF"></rect><g transform="translate(50 50) scale(0.69 0.69) rotate(0) translate(-50 -50)" style="fill:#0066CC"><svg fill="#0066CC" xmlns="http://www.w3.org/2000/svg" xmlns:xlink="http://www.w3.org/1999/xlink" version="1.1" x="0px" y="0px" viewBox="0 0 100 100" style="enable-background:new 0 0 100 100;" xml:space="preserve"><style type="text/css">
	.st0{fill:#0066CC;}
	.st1{fill:none;}
	.st2{fill:#0066CC;}
	.st3{fill:none;stroke:#0066CC;stroke-width:2.5;stroke-miterlimit:10;}
	.st4{fill:#0066CC;stroke:#0066CC;stroke-width:0.5;stroke-linecap:round;stroke-linejoin:round;}
</style><g><path class="st1" d="M58.1,33c0-4.2-3.4-7.7-7.7-7.7c-4.3,0-7.6,3.4-7.6,7.7s3.4,7.7,7.6,7.7C54.7,40.7,58.1,37.3,58.1,33z"></path><polygon class="st1" points="62.3,72.3 38.9,72.3 38.7,72.8 37.5,75.8 63.7,75.8 62.4,72.7  "></polygon><path class="st1" d="M36.8,58.4H64c-2-9-8.6-14.3-13.6-14.3C45.4,44.1,38.9,49.4,36.8,58.4z"></path><path class="st1" d="M37.4,48.8c1.4-2.2,3.1-3.9,4.9-5.3c0.3-0.4,0.5-0.7,0.5-1.2c0.1-0.6-0.1-1.2-0.5-1.7   c-1.7-1.9-2.9-4.5-2.9-7.4c0-6.1,4.9-11,11-11h0.1c0.1,0,0.1,0,0.1,0c6.1,0,11,5,11,11c0,2.9-1.2,5.5-2.9,7.4   c-0.4,0.5-0.5,1.1-0.5,1.7c0,0.5,0.2,0.8,0.5,1.2c1.8,1.3,3.5,3.1,4.9,5.3c1.8,2.8,3.2,6.2,3.9,9.6h16.5V18.5H18.5v39.9h15   C34.2,55,35.5,51.6,37.4,48.8z"></path><path class="st1" d="M68.1,62h-3.6H36.3h-3.4h-15L9.8,81.5h54.7h28.3L84.7,62H68.1z M66.8,76.3c0,1.2-1.1,2.2-2.3,2.2H36.8   c-1.3,0-2.3-1-2.3-2.2V76h-0.1l1.9-4.7v0c0.2-1,1.1-1.8,2.3-1.8H40h20.9h1.7c1.2,0,2.1,0.8,2.3,1.7c0,0,0,0,0,0.1l1.9,4.7V76.3z"></path><path class="st2" d="M87.8,59.8c0-0.1,0-0.3,0-0.4v-37v-4.8c0-1.4-1.3-2.5-2.9-2.5H17.7c-1.5,0-2.8,1.1-2.8,2.5v7.5v34.3   c0,0.1,0,0.3,0,0.4L5.7,82v0.3c0,1.4,1.2,2.6,2.7,2.6h85.9c1.5,0,2.7-1.2,2.7-2.6V82L87.8,59.8z M18.5,18.5h65.6v39.9H67.6   c-0.8-3.4-2.1-6.8-3.9-9.6c-1.4-2.2-3.1-3.9-4.9-5.3c-0.3-0.4-0.5-0.7-0.5-1.2c-0.1-0.6,0.1-1.2,0.5-1.7c1.7-1.9,2.9-4.5,2.9-7.4   c0-6-4.9-11-11-11c-0.1,0-0.1,0-0.1,0h-0.1c-6.1,0-11,4.9-11,11c0,2.9,1.2,5.5,2.9,7.4c0.4,0.5,0.6,1.1,0.5,1.7   c0,0.5-0.2,0.8-0.5,1.2c-1.8,1.3-3.5,3.1-4.9,5.3c-1.8,2.9-3.2,6.2-4,9.6h-15V18.5z M50.4,44.1c5,0,11.6,5.3,13.6,14.3H36.8   C38.9,49.4,45.4,44.1,50.4,44.1z M42.8,33c0-4.2,3.3-7.7,7.6-7.7c4.3,0,7.7,3.4,7.7,7.7c0,4.3-3.4,7.7-7.7,7.7   C46.2,40.7,42.8,37.3,42.8,33z M64.5,81.5H9.8L17.9,62h15h3.4h28.3h3.6h16.5l8.1,19.5H64.5z"></path><path class="st2" d="M64.8,71.2c-0.2-1-1.1-1.7-2.3-1.7h-1.7H40h-1.4c-1.2,0-2.1,0.8-2.3,1.8v0L34.4,76h0.1v0.3   c0,1.2,1,2.2,2.3,2.2h27.7c1.2,0,2.3-1,2.3-2.2V76L64.8,71.2C64.9,71.3,64.8,71.2,64.8,71.2z M37.5,75.8l1.2-3l0.2-0.5h23.4   l0.1,0.4l1.2,3.1H37.5z"></path></g></svg></g></svg>